# File created by Blade
# Date/Time:  Tue Apr 07 21:32:54 2015
#---------------------------------------------------------
:version 1.10
:name HOM
:units
  mass 1.0
  length 1.000000
  angle deg
:documentation
     Acclaim Skeleton File
:root
   axis xyz
   order TX TY TZ RX RY RZ
   position 0.000000 0.000000 0.000000
   orientation 0 0 0
:bonedata
   begin
      id 1
      name Spine_dum
      direction 0.000000 1.000000 0.000000
      length 4.885285
      axis 0.0 0.0 0.0 xyz
   end
   begin
      id 2
      name LeftUpLeg_dum
      direction 1.000000 0.000000 0.000000
      length 2.672193
      axis 0.0 0.0 0.0 xyz
   end
   begin
      id 3
      name RightUpLeg_dum
      direction -1.000000 0.000000 0.000000
      length 2.672193
      axis 0.0 0.0 0.0 xyz
   end
   begin
      id 4
      name Spine
      direction 0.000000 1.000000 0.000000
      length 0.000000
      axis 0.0 0.0 0.0 xyz
      dof rx ry rz
   end
   begin
      id 5
      name Spine_dum1
      direction 0.000000 1.000000 0.000000
      length 16.494159
      axis 0.0 0.0 0.0 xyz
   end
   begin
      id 6
      name Spine_dum2
      direction 0.000000 1.000000 0.000000
      length 10.663448
      axis 0.0 0.0 0.0 xyz
   end
   begin
      id 7
      name Spine_dum3
      direction 0.000000 1.000000 0.000000
      length 10.663448
      axis 0.0 0.0 0.0 xyz
   end
   begin
      id 8
      name Head
      direction 0.000000 1.000000 0.000000
      length 4.527550
      axis 0.0 0.0 0.0 xyz
      dof rx ry rz
   end
   begin
      id 9
      name LeftShoulder
      direction 1.000000 0.000000 0.000000
      length 7.531907
      axis 0.0 0.0 -90.0 xyz
      dof rx ry rz
   end
   begin
      id 10
      name LeftArm
      direction 1.000000 0.000000 0.000000
      length 10.229199
      axis 0.0 0.0 -90.0 xyz
      dof rx ry rz
   end
   begin
      id 11
      name LeftForeArm
      direction 1.000000 0.000000 0.000000
      length 8.673495
      axis 0.0 0.0 -90.0 xyz
      dof ry rz rx
   end
   begin
      id 12
      name LeftHand
      direction 0.000000 0.000000 0.000000
      length 0.000000
      axis 0.0 0.0 -90.0 xyz
      dof rx ry rz
   end
   begin
      id 13
      name LeftHand_dum1
      direction 0.000000 0.000000 0.000000
      length 0.000000
      axis 0.0 0.0 -90.0 xyz
   end
   begin
      id 14
      name LeftHand_dum2
      direction 1.000000 0.000000 0.000000
      length 3.937000
      axis 0.0 0.0 -90.0 xyz
   end
   begin
      id 15
      name LeftHandThumb1
      direction 0.000000 0.000000 1.000000
      length 3.937000
      axis 0.0 0.0 -90.0 xyz
      dof rx rz ry
   end
   begin
      id 16
      name RightShoulder
      direction -1.000000 0.000000 0.000000
      length 7.531907
      axis 0.0 0.0 90.0 xyz
      dof rx ry rz
   end
   begin
      id 17
      name RightArm
      direction -1.000000 0.000000 0.000000
      length 10.229199
      axis 0.0 0.0 90.0 xyz
      dof rx ry rz
   end
   begin
      id 18
      name RightForeArm
      direction -1.000000 0.000000 0.000000
      length 8.673495
      axis 0.0 0.0 90.0 xyz
      dof ry rz rx
   end
   begin
      id 19
      name RightHand
      direction 0.000000 0.000000 0.000000
      length 0.000000
      axis 0.0 0.0 90.0 xyz
      dof rx ry rz
   end
   begin
      id 20
      name RightHand_dum1
      direction 0.000000 0.000000 0.000000
      length 0.000000
      axis 0.0 0.0 90.0 xyz
   end
   begin
      id 21
      name RightHand_dum2
      direction -1.000000 0.000000 0.000000
      length 3.937000
      axis 0.0 0.0 90.0 xyz
   end
   begin
      id 22
      name RightHandThumb1
      direction 0.000000 0.000000 1.000000
      length 3.937000
      axis 0.0 0.0 90.0 xyz
      dof rx rz ry
   end
   begin
      id 23
      name LeftUpLeg
      direction 0.000000 -1.000000 0.000000
      length 16.263388
      axis 0.0 0.0 0.0 xyz
      dof rx ry rz
   end
   begin
      id 24
      name LeftLeg
      direction 0.000000 -1.000000 0.000000
      length 14.328163
      axis 0.0 0.0 0.0 xyz
      dof rx ry rz
   end
   begin
      id 25
      name LeftFoot
      direction 0.000000 -0.258819 0.965926
      length 5.031290
      axis 15.0 0.0 0.0 xyz
      dof rx ry rz
   end
   begin
      id 26
      name LeftToeBase
      direction 0.000000 0.000000 1.000000
      length 2.952750
      axis 0.0 0.0 0.0 xyz
      dof rx ry rz
   end
   begin
      id 27
      name RightUpLeg
      direction 0.000000 -1.000000 0.000000
      length 16.263388
      axis 0.0 0.0 0.0 xyz
      dof rx ry rz
   end
   begin
      id 28
      name RightLeg
      direction 0.000000 -1.000000 0.000000
      length 14.328163
      axis 0.0 0.0 0.0 xyz
      dof rx ry rz
   end
   begin
      id 29
      name RightFoot
      direction 0.000000 -0.258819 0.965926
      length 5.031290
      axis 15.0 0.0 0.0 xyz
      dof rx ry rz
   end
   begin
      id 30
      name RightToeBase
      direction 0.000000 0.000000 1.000000
      length 2.952750
      axis 0.0 0.0 0.0 xyz
      dof rx ry rz
   end
:hierarchy
   begin
      root Spine_dum LeftUpLeg_dum RightUpLeg_dum
      Spine_dum Spine
      LeftUpLeg_dum LeftUpLeg
      RightUpLeg_dum RightUpLeg
      Spine Spine_dum1 Spine_dum2 Spine_dum3
      Spine_dum1 Head
      Spine_dum2 LeftShoulder
      Spine_dum3 RightShoulder
      LeftShoulder LeftArm
      LeftArm LeftForeArm
      LeftForeArm LeftHand
      LeftHand LeftHand_dum1 LeftHand_dum2
      LeftHand_dum1 LeftHandThumb1
      RightShoulder RightArm
      RightArm RightForeArm
      RightForeArm RightHand
      RightHand RightHand_dum1 RightHand_dum2
      RightHand_dum1 RightHandThumb1
      LeftUpLeg LeftLeg
      LeftLeg LeftFoot
      LeftFoot LeftToeBase
      RightUpLeg RightLeg
      RightLeg RightFoot
      RightFoot RightToeBase
   end

# File created by Blade
# Date/Time:  Tue Apr 07 21:33:03 2015
# Frame Rate: 120.000 fps
#------------------------------------------------------
:FULLY-SPECIFIED
:DEGREES
158
root -0.088859 33.165536 -1.914806 16.231632 22.306147 4.911371
Spine -3.385619 0.028058 -2.294431
Head 27.148977 48.402688 -10.413490
LeftShoulder -25.579845 43.803011 -5.684429
LeftArm 52.937405 8.409305 -80.784063
LeftForeArm -19.961771 -0.000000 7.446474
LeftHand 1.270220 0.000000 -25.330278
LeftHandThumb1 -26.253704 0.000000 33.147579
RightShoulder -5.283599 -11.751183 -19.792835
RightArm 14.591652 -19.766477 85.252360
RightForeArm 9.014234 -0.000000 20.787427
RightHand 2.099278 -0.000000 16.939083
RightHandThumb1 -24.326973 -0.000000 -32.862282
LeftUpLeg -22.178818 -19.397805 1.987743
LeftLeg 10.773557 -0.000000 -0.000000
LeftFoot -5.961624 8.796478 -18.562779
LeftToeBase -12.702449 -0.000000 0.000000
RightUpLeg -14.204832 -4.300966 -4.289509
RightLeg 4.762701 -0.000000 -0.000000
RightFoot -7.297770 -25.854331 6.823340
RightToeBase -4.006816 -0.000000 0.000000
159
root -0.037966 33.169759 -1.930427 16.427736 22.461658 5.031147
Spine -3.449334 0.268650 -2.525067
Head 27.250546 48.195959 -10.238994
LeftShoulder -25.653389 43.851140 -5.659411
LeftArm 52.759430 8.081552 -80.962991
LeftForeArm -19.945657 -0.000000 7.537245
LeftHand 1.555397 -0.000000 -25.152043
LeftHandThumb1 -26.253704 0.000000 33.147579
RightShoulder -5.303461 -11.833122 -19.813589
RightArm 14.580519 -19.556713 84.936661
RightForeArm 8.747965 0.000000 21.013191
RightHand 2.184498 -0.000000 16.686726
RightHandThumb1 -24.326973 -0.000000 -32.862282
LeftUpLeg -22.393662 -19.000250 2.067496
LeftLeg 10.968065 -0.000000 -0.000000
LeftFoot -6.318272 9.758788 -18.046631
LeftToeBase -12.376929 -0.000000 0.000000
RightUpLeg -14.317312 -4.260787 -4.499655
RightLeg 4.779392 -0.000000 -0.000000
RightFoot -7.282644 -26.034074 6.845773
RightToeBase -4.026719 -0.000000 0.000000
160
root 0.010686 33.171774 -1.933454 16.536651 22.733238 5.033684
Spine -3.493746 0.359933 -2.603698
Head 27.349403 48.060796 -10.087398
LeftShoulder -25.831958 43.915062 -5.735270
LeftArm 52.615021 7.752634 -81.097046
LeftForeArm -19.928784 -0.000000 7.625409
LeftHand 1.619710 0.000000 -24.876905
LeftHandThumb1 -26.253704 0.000000 33.147579
RightShoulder -5.290637 -11.868234 -19.844673
RightArm 14.521795 -19.371136 84.629637
RightForeArm 8.371370 -0.000000 21.240745
RightHand 2.191463 0.000000 16.567995
RightHandThumb1 -24.326973 -0.000000 -32.862282
LeftUpLeg -22.605392 -18.471680 2.257105
LeftLeg 11.272757 -0.000000 -0.000000
LeftFoot -6.566396 10.329102 -17.417475
LeftToeBase -12.535884 -0.000000 0.000000
RightUpLeg -14.374420 -4.408711 -4.539918
RightLeg 4.838624 -0.000000 -0.000000
RightFoot -7.265677 -26.098179 6.880215
RightToeBase -4.103452 -0.000000 0.000000
161
root 0.065991 33.173728 -1.931726 16.619545 22.975880 5.087653
Spine -3.504943 0.467433 -2.748605
Head 27.453540 47.949070 -9.928485
LeftShoulder -25.932587 43.956037 -5.757873
LeftArm 52.422688 7.369352 -81.269232
LeftForeArm -19.900258 -0.000000 7.709300
LeftHand 1.630453 0.000000 -24.462595
LeftHandThumb1 -26.253704 0.000000 33.147579
RightShoulder -5.323383 -11.974939 -19.841186
RightArm 14.556834 -19.179417 84.303361
RightForeArm 8.003626 -0.000000 21.443282
RightHand 2.244267 -0.000000 16.718082
RightHandThumb1 -24.326973 -0.000000 -32.862282
LeftUpLeg -22.705320 -18.091573 2.477333
LeftLeg 11.410853 -0.000000 -0.000000
LeftFoot -6.689812 10.853083 -16.883003
LeftToeBase -12.652662 -0.000000 0.000000
RightUpLeg -14.366695 -4.426125 -4.665508
RightLeg 4.888320 -0.000000 -0.000000
RightFoot -7.275924 -26.294549 6.893570
RightToeBase -4.122005 -0.000000 0.000000
162
root 0.122742 33.174408 -1.928886 16.677479 23.189383 5.125258
Spine -3.497559 0.581336 -2.896121
Head 27.533419 47.851726 -9.778302
LeftShoulder -26.066823 44.021582 -5.807581
LeftArm 52.271493 6.948725 -81.491574
LeftForeArm -19.694659 -0.000000 7.804428
LeftHand 1.715521 -0.000000 -24.158012
LeftHandThumb1 -26.253704 0.000000 33.147579
RightShoulder -5.353300 -12.009287 -19.834298
RightArm 14.490150 -18.955743 84.031715
RightForeArm 7.695583 -0.000000 21.662055
RightHand 2.252940 -0.000000 16.582909
RightHandThumb1 -24.326973 -0.000000 -32.862282
LeftUpLeg -22.777210 -17.746777 2.775532
LeftLeg 11.500359 -0.000000 -0.000000
LeftFoot -6.755639 11.265093 -16.399844
LeftToeBase -12.939755 -0.000000 0.000000
RightUpLeg -14.325984 -4.409367 -4.787305
RightLeg 4.904256 -0.000000 -0.000000
RightFoot -7.322623 -26.471231 7.017157
RightToeBase -4.065948 -0.000000 0.000000
163
root 0.185758 33.174063 -1.924956 16.733128 23.395748 5.183336
Spine -3.486012 0.629830 -3.052552
Head 27.584683 47.801120 -9.670558
LeftShoulder -26.238550 44.058833 -5.888083
LeftArm 52.096935 6.482166 -81.742919
LeftForeArm -19.557360 -0.000000 7.870029
LeftHand 1.861805 0.000000 -23.869167
LeftHandThumb1 -26.253704 0.000000 33.147579
RightShoulder -5.365474 -12.040721 -19.862679
RightArm 14.482290 -18.841014 83.753416
RightForeArm 7.497347 0.000000 21.824066
RightHand 2.294561 -0.000000 16.517989
RightHandThumb1 -24.326973 -0.000000 -32.862282
LeftUpLeg -22.836531 -17.497992 3.116829
LeftLeg 11.554369 -0.000000 -0.000000
LeftFoot -6.683941 11.579277 -16.149274
LeftToeBase -13.330642 -0.000000 0.000000
RightUpLeg -14.277204 -4.496219 -4.916172
RightLeg 4.932618 -0.000000 -0.000000
RightFoot -7.342440 -26.575888 7.044241
RightToeBase -4.063691 -0.000000 0.000000
164
root 0.244227 33.170470 -1.922467 16.802805 23.576618 5.186690
Spine -3.520796 0.679558 -3.176907
Head 27.645355 47.775188 -9.515800
LeftShoulder -26.396312 44.114003 -5.935765
LeftArm 51.932994 6.066292 -81.947176
LeftForeArm -19.440031 0.000000 7.938189
LeftHand 1.986220 0.000000 -23.563942
LeftHandThumb1 -26.253704 0.000000 33.147579
RightShoulder -5.363900 -12.063273 -19.879886
RightArm 14.424404 -18.630306 83.526924
RightForeArm 7.258301 0.000000 22.057016
RightHand 2.408960 -0.000000 16.492717
RightHandThumb1 -24.326973 -0.000000 -32.862282
LeftUpLeg -22.952147 -17.202087 3.566259
LeftLeg 11.628659 -0.000000 -0.000000
LeftFoot -6.618150 11.872382 -15.619390
LeftToeBase -13.436294 -0.000000 0.000000
RightUpLeg -14.295724 -4.553850 -4.991011
RightLeg 5.010086 -0.000000 -0.000000
RightFoot -7.530178 -26.602564 7.266981
RightToeBase -3.785454 -0.000000 0.000000
165
root 0.310102 33.165822 -1.915709 16.808143 23.740845 5.193591
Spine -3.493298 0.742688 -3.307372
Head 27.687918 47.747278 -9.388788
LeftShoulder -26.527721 44.181066 -5.989809
LeftArm 51.787946 5.575902 -82.222055
LeftForeArm -19.185451 -0.000000 8.010387
LeftHand 1.992873 0.000000 -23.246042
LeftHandThumb1 -26.253704 0.000000 33.147579
RightShoulder -5.420964 -12.132670 -19.923252
RightArm 14.541949 -18.559669 83.305336
RightForeArm 7.122473 -0.000000 22.072571
RightHand 2.369435 -0.000000 16.302951
RightHandThumb1 -24.326973 -0.000000 -32.862282
LeftUpLeg -22.965414 -17.018218 4.061420
LeftLeg 11.617426 -0.000000 -0.000000
LeftFoot -6.457859 12.108047 -15.135943
LeftToeBase -13.958330 -0.000000 0.000000
RightUpLeg -14.254796 -4.661981 -5.071093
RightLeg 5.106044 -0.000000 -0.000000
RightFoot -7.583280 -26.640358 7.296360
RightToeBase -3.768343 -0.000000 0.000000
166
root 0.377181 33.160658 -1.908403 16.817103 23.907369 5.199073
Spine -3.470454 0.753006 -3.431760
Head 27.690567 47.760161 -9.310733
LeftShoulder -26.649838 44.227882 -6.042834
LeftArm 51.609316 5.087362 -82.469315
LeftForeArm -18.904950 -0.000000 8.070275
LeftHand 2.170871 -0.000000 -22.854072
LeftHandThumb1 -26.253704 0.000000 33.147579
RightShoulder -5.457976 -12.147482 -19.959115
RightArm 14.539058 -18.439844 83.113470
RightForeArm 7.046474 -0.000000 22.206219
RightHand 2.347560 -0.000000 16.116477
RightHandThumb1 -24.326973 -0.000000 -32.862282
LeftUpLeg -22.986451 -16.811422 4.596251
LeftLeg 11.604592 -0.000000 -0.000000
LeftFoot -6.148705 12.227073 -14.624480
LeftToeBase -14.378909 -0.000000 0.000000
RightUpLeg -14.209708 -4.752716 -5.153865
RightLeg 5.191143 -0.000000 -0.000000
RightFoot -7.618004 -26.712156 7.328713
RightToeBase -3.765772 -0.000000 0.000000
